<?xml version="1.0" encoding="UTF-8" standalone="no"?>
<!DOCTYPE svg PUBLIC "-//W3C//DTD SVG 1.1//EN"
 "http://www.w3.org/Graphics/SVG/1.1/DTD/svg11.dtd">
<!-- Generated by graphviz version 13.1.0 (20250701.0955)
 -->
<!-- Title: tsl2561_interrupt_init Pages: 1 -->
<svg width="291pt" height="658pt"
 viewBox="0.00 0.00 291.00 658.00" xmlns="http://www.w3.org/2000/svg" xmlns:xlink="http://www.w3.org/1999/xlink">
<g id="graph0" class="graph" transform="scale(1 1) rotate(0) translate(4 654)">
<title>tsl2561_interrupt_init</title>
<!-- Node1 -->
<g id="Node000001" class="node">
<title>Node1</title>
<g id="a_Node000001"><a xlink:title="interrupt example init">
<polygon fill="#999999" stroke="#666666" points="106,-332 0,-332 0,-312 106,-312 106,-332"/>
<text xml:space="preserve" text-anchor="middle" x="53" y="-318.5" font-family="Helvetica,sans-Serif" font-size="10.00">tsl2561_interrupt_init</text>
</a>
</g>
</g>
<!-- Node2 -->
<g id="Node000002" class="node">
<title>Node2</title>
<g id="a_Node000002"><a xlink:href="group__tsl2561__base__driver.html#ga28d9692abebc8d1c7c70ef8e3f4d0f5f" target="_top" xlink:title="close the chip">
<polygon fill="white" stroke="#666666" points="250.25,-650 174.25,-650 174.25,-630 250.25,-630 250.25,-650"/>
<text xml:space="preserve" text-anchor="middle" x="212.25" y="-636.5" font-family="Helvetica,sans-Serif" font-size="10.00">tsl2561_deinit</text>
</a>
</g>
</g>
<!-- Node1&#45;&gt;Node2 -->
<g id="edge1_Node000001_Node000002" class="edge">
<title>Node1&#45;&gt;Node2</title>
<g id="a_edge1_Node000001_Node000002"><a xlink:title=" ">
<path fill="none" stroke="#63b8ff" d="M53.7,-332.25C53.07,-374.53 56.47,-537.03 142,-621 147.87,-626.76 155.32,-630.82 163.14,-633.66"/>
<polygon fill="#63b8ff" stroke="#63b8ff" points="161.89,-636.94 172.47,-636.41 163.86,-630.23 161.89,-636.94"/>
</a>
</g>
</g>
<!-- Node3 -->
<g id="Node000003" class="node">
<title>Node3</title>
<g id="a_Node000003"><a xlink:href="group__tsl2561__base__driver.html#ga84a50a0c1118ead7fadb6f76ee991ea3" target="_top" xlink:title="initialize the chip">
<polygon fill="white" stroke="#666666" points="245,-612 179.5,-612 179.5,-592 245,-592 245,-612"/>
<text xml:space="preserve" text-anchor="middle" x="212.25" y="-598.5" font-family="Helvetica,sans-Serif" font-size="10.00">tsl2561_init</text>
</a>
</g>
</g>
<!-- Node1&#45;&gt;Node3 -->
<g id="edge2_Node000001_Node000003" class="edge">
<title>Node1&#45;&gt;Node3</title>
<g id="a_edge2_Node000001_Node000003"><a xlink:title=" ">
<path fill="none" stroke="#63b8ff" d="M54.21,-332.27C55.59,-371.21 65.85,-511.11 142,-583 149.17,-589.77 158.51,-594.17 168.01,-597.01"/>
<polygon fill="#63b8ff" stroke="#63b8ff" points="167.09,-600.39 177.63,-599.34 168.73,-593.59 167.09,-600.39"/>
</a>
</g>
</g>
<!-- Node4 -->
<g id="Node000004" class="node">
<title>Node4</title>
<g id="a_Node000004"><a xlink:href="group__tsl2561__interface__driver.html#ga3477a0a39215d6b4fd6ef14ed3ff63ff" target="_top" xlink:title="interface print format data">
<polygon fill="white" stroke="#666666" points="273.12,-574 151.38,-574 151.38,-542 273.12,-542 273.12,-574"/>
<text xml:space="preserve" text-anchor="start" x="159.38" y="-560.5" font-family="Helvetica,sans-Serif" font-size="10.00">tsl2561_interface_debug</text>
<text xml:space="preserve" text-anchor="middle" x="212.25" y="-548.5" font-family="Helvetica,sans-Serif" font-size="10.00">_print</text>
</a>
</g>
</g>
<!-- Node1&#45;&gt;Node4 -->
<g id="edge3_Node000001_Node000004" class="edge">
<title>Node1&#45;&gt;Node4</title>
<g id="a_edge3_Node000001_Node000004"><a xlink:title=" ">
<path fill="none" stroke="#63b8ff" d="M55.36,-332.44C60.33,-366.33 80.5,-474.42 142,-533 142.75,-533.71 143.52,-534.41 144.31,-535.08"/>
<polygon fill="#63b8ff" stroke="#63b8ff" points="142.03,-537.75 152.21,-540.7 146.09,-532.05 142.03,-537.75"/>
</a>
</g>
</g>
<!-- Node5 -->
<g id="Node000005" class="node">
<title>Node5</title>
<g id="a_Node000005"><a xlink:href="group__tsl2561__interface__driver.html#gaf1d2377fef3145b6c570f03465f2b208" target="_top" xlink:title="interface delay ms">
<polygon fill="white" stroke="#666666" points="281,-524 143.5,-524 143.5,-504 281,-504 281,-524"/>
<text xml:space="preserve" text-anchor="middle" x="212.25" y="-510.5" font-family="Helvetica,sans-Serif" font-size="10.00">tsl2561_interface_delay_ms</text>
</a>
</g>
</g>
<!-- Node1&#45;&gt;Node5 -->
<g id="edge4_Node000001_Node000005" class="edge">
<title>Node1&#45;&gt;Node5</title>
<g id="a_edge4_Node000001_Node000005"><a xlink:title=" ">
<path fill="none" stroke="#63b8ff" d="M56.19,-332.42C63.07,-362.52 87.15,-450.28 142,-495 143.33,-496.08 144.71,-497.1 146.15,-498.07"/>
<polygon fill="#63b8ff" stroke="#63b8ff" points="144.41,-501.11 154.86,-502.89 147.8,-494.98 144.41,-501.11"/>
</a>
</g>
</g>
<!-- Node6 -->
<g id="Node000006" class="node">
<title>Node6</title>
<g id="a_Node000006"><a xlink:href="group__tsl2561__interface__driver.html#ga22f6bdf1fbcd3bb8fc4cd178c0acc6e4" target="_top" xlink:title="interface iic bus deinit">
<polygon fill="white" stroke="#666666" points="264.88,-486 159.62,-486 159.62,-454 264.88,-454 264.88,-486"/>
<text xml:space="preserve" text-anchor="start" x="167.62" y="-472.5" font-family="Helvetica,sans-Serif" font-size="10.00">tsl2561_interface_iic</text>
<text xml:space="preserve" text-anchor="middle" x="212.25" y="-460.5" font-family="Helvetica,sans-Serif" font-size="10.00">_deinit</text>
</a>
</g>
</g>
<!-- Node1&#45;&gt;Node6 -->
<g id="edge5_Node000001_Node000006" class="edge">
<title>Node1&#45;&gt;Node6</title>
<g id="a_edge5_Node000001_Node000006"><a xlink:title=" ">
<path fill="none" stroke="#63b8ff" d="M58.61,-332.18C69.67,-355.48 99.93,-413.14 142,-445 144.27,-446.72 146.68,-448.33 149.17,-449.84"/>
<polygon fill="#63b8ff" stroke="#63b8ff" points="147.34,-452.83 157.81,-454.44 150.63,-446.65 147.34,-452.83"/>
</a>
</g>
</g>
<!-- Node7 -->
<g id="Node000007" class="node">
<title>Node7</title>
<g id="a_Node000007"><a xlink:href="group__tsl2561__interface__driver.html#ga1a281b120ea49954f762d7b2eaff1224" target="_top" xlink:title="interface iic bus init">
<polygon fill="white" stroke="#666666" points="273.88,-436 150.62,-436 150.62,-416 273.88,-416 273.88,-436"/>
<text xml:space="preserve" text-anchor="middle" x="212.25" y="-422.5" font-family="Helvetica,sans-Serif" font-size="10.00">tsl2561_interface_iic_init</text>
</a>
</g>
</g>
<!-- Node1&#45;&gt;Node7 -->
<g id="edge6_Node000001_Node000007" class="edge">
<title>Node1&#45;&gt;Node7</title>
<g id="a_edge6_Node000001_Node000007"><a xlink:title=" ">
<path fill="none" stroke="#63b8ff" d="M61.76,-332.33C75.78,-350.27 107.12,-387.13 142,-407 144.79,-408.59 147.73,-410.05 150.74,-411.4"/>
<polygon fill="#63b8ff" stroke="#63b8ff" points="149.24,-414.57 159.83,-414.98 151.8,-408.06 149.24,-414.57"/>
</a>
</g>
</g>
<!-- Node8 -->
<g id="Node000008" class="node">
<title>Node8</title>
<g id="a_Node000008"><a xlink:href="group__tsl2561__interface__driver.html#ga573ea1b7ae198af677bc3b27b6a3a2d7" target="_top" xlink:title="interface iic bus read">
<polygon fill="white" stroke="#666666" points="276.88,-398 147.62,-398 147.62,-378 276.88,-378 276.88,-398"/>
<text xml:space="preserve" text-anchor="middle" x="212.25" y="-384.5" font-family="Helvetica,sans-Serif" font-size="10.00">tsl2561_interface_iic_read</text>
</a>
</g>
</g>
<!-- Node1&#45;&gt;Node8 -->
<g id="edge7_Node000001_Node000008" class="edge">
<title>Node1&#45;&gt;Node8</title>
<g id="a_edge7_Node000001_Node000008"><a xlink:title=" ">
<path fill="none" stroke="#63b8ff" d="M70.66,-332.35C87.97,-342.75 116.09,-358.68 142,-369 146.69,-370.87 151.62,-372.62 156.61,-374.25"/>
<polygon fill="#63b8ff" stroke="#63b8ff" points="155.51,-377.57 166.09,-377.16 157.56,-370.88 155.51,-377.57"/>
</a>
</g>
</g>
<!-- Node9 -->
<g id="Node000009" class="node">
<title>Node9</title>
<g id="a_Node000009"><a xlink:href="group__tsl2561__interface__driver.html#ga98a581f813a5c86a5ab34784144c07ab" target="_top" xlink:title="interface iic bus write">
<polygon fill="white" stroke="#666666" points="264.88,-360 159.62,-360 159.62,-328 264.88,-328 264.88,-360"/>
<text xml:space="preserve" text-anchor="start" x="167.62" y="-346.5" font-family="Helvetica,sans-Serif" font-size="10.00">tsl2561_interface_iic</text>
<text xml:space="preserve" text-anchor="middle" x="212.25" y="-334.5" font-family="Helvetica,sans-Serif" font-size="10.00">_write</text>
</a>
</g>
</g>
<!-- Node1&#45;&gt;Node9 -->
<g id="edge8_Node000001_Node000009" class="edge">
<title>Node1&#45;&gt;Node9</title>
<g id="a_edge8_Node000001_Node000009"><a xlink:title=" ">
<path fill="none" stroke="#63b8ff" d="M106.36,-329.33C119.83,-331.21 134.45,-333.26 148.39,-335.21"/>
<polygon fill="#63b8ff" stroke="#63b8ff" points="147.5,-338.61 157.89,-336.53 148.47,-331.68 147.5,-338.61"/>
</a>
</g>
</g>
<!-- Node10 -->
<g id="Node000010" class="node">
<title>Node10</title>
<g id="a_Node000010"><a xlink:href="group__tsl2561__base__driver.html#ga6f162e88076d195caa4b2f0d8618ff57" target="_top" xlink:title="set the iic address pin">
<polygon fill="white" stroke="#666666" points="266.38,-310 158.12,-310 158.12,-290 266.38,-290 266.38,-310"/>
<text xml:space="preserve" text-anchor="middle" x="212.25" y="-296.5" font-family="Helvetica,sans-Serif" font-size="10.00">tsl2561_set_addr_pin</text>
</a>
</g>
</g>
<!-- Node1&#45;&gt;Node10 -->
<g id="edge9_Node000001_Node000010" class="edge">
<title>Node1&#45;&gt;Node10</title>
<g id="a_edge9_Node000001_Node000010"><a xlink:title=" ">
<path fill="none" stroke="#63b8ff" d="M106.36,-314.67C119.27,-312.87 133.26,-310.91 146.67,-309.03"/>
<polygon fill="#63b8ff" stroke="#63b8ff" points="146.86,-312.54 156.28,-307.69 145.89,-305.61 146.86,-312.54"/>
</a>
</g>
</g>
<!-- Node11 -->
<g id="Node000011" class="node">
<title>Node11</title>
<g id="a_Node000011"><a xlink:href="group__tsl2561__base__driver.html#gac665a54c9db148693b8cb7ef589b2101" target="_top" xlink:title="set the adc gain">
<polygon fill="white" stroke="#666666" points="257,-272 167.5,-272 167.5,-252 257,-252 257,-272"/>
<text xml:space="preserve" text-anchor="middle" x="212.25" y="-258.5" font-family="Helvetica,sans-Serif" font-size="10.00">tsl2561_set_gain</text>
</a>
</g>
</g>
<!-- Node1&#45;&gt;Node11 -->
<g id="edge10_Node000001_Node000011" class="edge">
<title>Node1&#45;&gt;Node11</title>
<g id="a_edge10_Node000001_Node000011"><a xlink:title=" ">
<path fill="none" stroke="#63b8ff" d="M73.86,-311.57C91.44,-302.63 117.95,-289.83 142,-281 147.07,-279.14 152.41,-277.36 157.78,-275.69"/>
<polygon fill="#63b8ff" stroke="#63b8ff" points="158.73,-279.06 167.33,-272.87 156.74,-272.35 158.73,-279.06"/>
</a>
</g>
</g>
<!-- Node12 -->
<g id="Node000012" class="node">
<title>Node12</title>
<g id="a_Node000012"><a xlink:href="group__tsl2561__base__driver.html#gad331206ce72a18afca3ccd60b4f43914" target="_top" xlink:title="set the integration time">
<polygon fill="white" stroke="#666666" points="282.5,-234 142,-234 142,-214 282.5,-214 282.5,-234"/>
<text xml:space="preserve" text-anchor="middle" x="212.25" y="-220.5" font-family="Helvetica,sans-Serif" font-size="10.00">tsl2561_set_integration_time</text>
</a>
</g>
</g>
<!-- Node1&#45;&gt;Node12 -->
<g id="edge11_Node000001_Node000012" class="edge">
<title>Node1&#45;&gt;Node12</title>
<g id="a_edge11_Node000001_Node000012"><a xlink:title=" ">
<path fill="none" stroke="#63b8ff" d="M62.62,-311.61C77.21,-294.71 108.48,-261.3 142,-243 145.02,-241.35 148.2,-239.84 151.46,-238.45"/>
<polygon fill="#63b8ff" stroke="#63b8ff" points="152.55,-241.77 160.66,-234.96 150.07,-235.23 152.55,-241.77"/>
</a>
</g>
</g>
<!-- Node13 -->
<g id="Node000013" class="node">
<title>Node13</title>
<g id="a_Node000013"><a xlink:href="group__tsl2561__interrupt__driver.html#gad5274afdb9828fa959698c637a4d7124" target="_top" xlink:title="enable or disable the chip interrupt">
<polygon fill="white" stroke="#666666" points="265.62,-196 158.88,-196 158.88,-176 265.62,-176 265.62,-196"/>
<text xml:space="preserve" text-anchor="middle" x="212.25" y="-182.5" font-family="Helvetica,sans-Serif" font-size="10.00">tsl2561_set_interrupt</text>
</a>
</g>
</g>
<!-- Node1&#45;&gt;Node13 -->
<g id="edge12_Node000001_Node000013" class="edge">
<title>Node1&#45;&gt;Node13</title>
<g id="a_edge12_Node000001_Node000013"><a xlink:title=" ">
<path fill="none" stroke="#63b8ff" d="M58.75,-311.75C69.89,-288.91 99.96,-233.57 142,-205 143.97,-203.66 146.04,-202.41 148.17,-201.25"/>
<polygon fill="#63b8ff" stroke="#63b8ff" points="149.58,-204.46 157.18,-197.08 146.63,-198.11 149.58,-204.46"/>
</a>
</g>
</g>
<!-- Node14 -->
<g id="Node000014" class="node">
<title>Node14</title>
<g id="a_Node000014"><a xlink:href="group__tsl2561__interrupt__driver.html#ga5c07d509898fd673f9ba004f06dfa161" target="_top" xlink:title="set the interrupt high threshold">
<polygon fill="white" stroke="#666666" points="265.62,-158 158.88,-158 158.88,-126 265.62,-126 265.62,-158"/>
<text xml:space="preserve" text-anchor="start" x="166.88" y="-144.5" font-family="Helvetica,sans-Serif" font-size="10.00">tsl2561_set_interrupt</text>
<text xml:space="preserve" text-anchor="middle" x="212.25" y="-132.5" font-family="Helvetica,sans-Serif" font-size="10.00">_high_threshold</text>
</a>
</g>
</g>
<!-- Node1&#45;&gt;Node14 -->
<g id="edge13_Node000001_Node000014" class="edge">
<title>Node1&#45;&gt;Node14</title>
<g id="a_edge13_Node000001_Node000014"><a xlink:title=" ">
<path fill="none" stroke="#63b8ff" d="M57.06,-311.68C65.72,-284.15 93.03,-208.29 142,-167 144.06,-165.26 146.25,-163.64 148.54,-162.13"/>
<polygon fill="#63b8ff" stroke="#63b8ff" points="150.12,-165.26 157.07,-157.26 146.65,-159.18 150.12,-165.26"/>
</a>
</g>
</g>
<!-- Node15 -->
<g id="Node000015" class="node">
<title>Node15</title>
<g id="a_Node000015"><a xlink:href="group__tsl2561__interrupt__driver.html#ga4a38a54eb4140c093349289ff7efe488" target="_top" xlink:title="set the interrupt low threshold">
<polygon fill="white" stroke="#666666" points="265.62,-108 158.88,-108 158.88,-76 265.62,-76 265.62,-108"/>
<text xml:space="preserve" text-anchor="start" x="166.88" y="-94.5" font-family="Helvetica,sans-Serif" font-size="10.00">tsl2561_set_interrupt</text>
<text xml:space="preserve" text-anchor="middle" x="212.25" y="-82.5" font-family="Helvetica,sans-Serif" font-size="10.00">_low_threshold</text>
</a>
</g>
</g>
<!-- Node1&#45;&gt;Node15 -->
<g id="edge14_Node000001_Node000015" class="edge">
<title>Node1&#45;&gt;Node15</title>
<g id="a_edge14_Node000001_Node000015"><a xlink:title=" ">
<path fill="none" stroke="#63b8ff" d="M55.46,-311.85C60.72,-278.91 81.69,-173.85 142,-117 144.12,-115.01 146.4,-113.17 148.81,-111.48"/>
<polygon fill="#63b8ff" stroke="#63b8ff" points="150.52,-114.53 157.32,-106.41 146.94,-108.52 150.52,-114.53"/>
</a>
</g>
</g>
<!-- Node16 -->
<g id="Node000016" class="node">
<title>Node16</title>
<g id="a_Node000016"><a xlink:href="group__tsl2561__interrupt__driver.html#ga30ba6476f18e90d6130cba741070fa67" target="_top" xlink:title="set the interrupt mode">
<polygon fill="white" stroke="#666666" points="280.25,-58 144.25,-58 144.25,-38 280.25,-38 280.25,-58"/>
<text xml:space="preserve" text-anchor="middle" x="212.25" y="-44.5" font-family="Helvetica,sans-Serif" font-size="10.00">tsl2561_set_interrupt_mode</text>
</a>
</g>
</g>
<!-- Node1&#45;&gt;Node16 -->
<g id="edge15_Node000001_Node000016" class="edge">
<title>Node1&#45;&gt;Node16</title>
<g id="a_edge15_Node000001_Node000016"><a xlink:title=" ">
<path fill="none" stroke="#63b8ff" d="M54.31,-311.69C56.02,-273.27 67.35,-136.99 142,-67 142.91,-66.15 143.85,-65.33 144.83,-64.55"/>
<polygon fill="#63b8ff" stroke="#63b8ff" points="146.51,-67.63 153.04,-59.29 142.73,-61.74 146.51,-67.63"/>
</a>
</g>
</g>
<!-- Node17 -->
<g id="Node000017" class="node">
<title>Node17</title>
<g id="a_Node000017"><a xlink:href="group__tsl2561__base__driver.html#gae080c29275c44f5496977b8553e94457" target="_top" xlink:title="wake up the chip">
<polygon fill="white" stroke="#666666" points="258.12,-20 166.38,-20 166.38,0 258.12,0 258.12,-20"/>
<text xml:space="preserve" text-anchor="middle" x="212.25" y="-6.5" font-family="Helvetica,sans-Serif" font-size="10.00">tsl2561_wake_up</text>
</a>
</g>
</g>
<!-- Node1&#45;&gt;Node17 -->
<g id="edge16_Node000001_Node000017" class="edge">
<title>Node1&#45;&gt;Node17</title>
<g id="a_edge16_Node000001_Node000017"><a xlink:title=" ">
<path fill="none" stroke="#63b8ff" d="M53.78,-311.67C53.45,-269.78 58.01,-111 142,-29 145.92,-25.17 150.53,-22.1 155.49,-19.64"/>
<polygon fill="#63b8ff" stroke="#63b8ff" points="156.66,-22.94 164.62,-15.95 154.04,-16.45 156.66,-22.94"/>
</a>
</g>
</g>
</g>
</svg>
