<?xml version="1.0" encoding="UTF-8" standalone="no"?>
<!DOCTYPE svg PUBLIC "-//W3C//DTD SVG 1.1//EN"
 "http://www.w3.org/Graphics/SVG/1.1/DTD/svg11.dtd">
<!-- Generated by graphviz version 13.1.0 (20250701.0955)
 -->
<!-- Title: tsl2561 driver function Pages: 1 -->
<svg width="271pt" height="340pt"
 viewBox="0.00 0.00 271.00 340.00" xmlns="http://www.w3.org/2000/svg" xmlns:xlink="http://www.w3.org/1999/xlink">
<g id="graph0" class="graph" transform="scale(1 1) rotate(0) translate(4 336)">
<title>tsl2561 driver function</title>
<!-- Node3 -->
<g id="Node000003" class="node">
<title>Node3</title>
<g id="a_Node000003"><a xlink:href="group__tsl2561__base__driver.html" target="_top" xlink:title="tsl2561 base driver modules">
<polygon fill="white" stroke="#666666" points="254.75,-332 156.25,-332 156.25,-300 254.75,-300 254.75,-332"/>
<text xml:space="preserve" text-anchor="start" x="164.25" y="-318.5" font-family="Helvetica,sans-Serif" font-size="10.00">tsl2561 base driver</text>
<text xml:space="preserve" text-anchor="middle" x="205.5" y="-306.5" font-family="Helvetica,sans-Serif" font-size="10.00"> function</text>
</a>
</g>
</g>
<!-- Node1 -->
<g id="Node000001" class="node">
<title>Node1</title>
<g id="a_Node000001"><a xlink:title="tsl2561 driver modules">
<polygon fill="#999999" stroke="#666666" points="112,-176 0,-176 0,-156 112,-156 112,-176"/>
<text xml:space="preserve" text-anchor="middle" x="56" y="-162.5" font-family="Helvetica,sans-Serif" font-size="10.00">tsl2561 driver function</text>
</a>
</g>
</g>
<!-- Node1&#45;&gt;Node3 -->
<g id="edge2" class="edge">
<title>Node1&#45;&gt;Node3</title>
<path fill="none" stroke="black" d="M67.39,-186.4C82.08,-213.49 111.28,-261.37 148,-291 151.92,-294.17 156.31,-297.01 160.86,-299.55"/>
<polygon fill="black" stroke="black" points="70.63,-185.04 62.87,-177.83 64.44,-188.3 70.63,-185.04"/>
</g>
<!-- Node7 -->
<g id="Node000007" class="node">
<title>Node7</title>
<g id="a_Node000007"><a xlink:href="group__tsl2561__example__driver.html" target="_top" xlink:title="tsl2561 example driver modules">
<polygon fill="white" stroke="#666666" points="262.62,-282 148.38,-282 148.38,-250 262.62,-250 262.62,-282"/>
<text xml:space="preserve" text-anchor="start" x="156.38" y="-268.5" font-family="Helvetica,sans-Serif" font-size="10.00">tsl2561 example driver</text>
<text xml:space="preserve" text-anchor="middle" x="205.5" y="-256.5" font-family="Helvetica,sans-Serif" font-size="10.00"> function</text>
</a>
</g>
</g>
<!-- Node1&#45;&gt;Node7 -->
<g id="edge6" class="edge">
<title>Node1&#45;&gt;Node7</title>
<path fill="none" stroke="black" d="M75.71,-184.03C93.34,-200.36 121,-224.34 148,-241 152.93,-244.04 158.29,-246.91 163.69,-249.55"/>
<polygon fill="black" stroke="black" points="78.25,-181.61 68.57,-177.31 73.45,-186.71 78.25,-181.61"/>
</g>
<!-- Node5 -->
<g id="Node000005" class="node">
<title>Node5</title>
<g id="a_Node000005"><a xlink:href="group__tsl2561__extend__driver.html" target="_top" xlink:title="tsl2561 extend driver modules">
<polygon fill="white" stroke="#666666" points="258.88,-232 152.12,-232 152.12,-200 258.88,-200 258.88,-232"/>
<text xml:space="preserve" text-anchor="start" x="160.12" y="-218.5" font-family="Helvetica,sans-Serif" font-size="10.00">tsl2561 extend driver</text>
<text xml:space="preserve" text-anchor="middle" x="205.5" y="-206.5" font-family="Helvetica,sans-Serif" font-size="10.00"> function</text>
</a>
</g>
</g>
<!-- Node1&#45;&gt;Node5 -->
<g id="edge4" class="edge">
<title>Node1&#45;&gt;Node5</title>
<path fill="none" stroke="black" d="M98.57,-180.09C116.41,-186.14 137.36,-193.24 155.91,-199.53"/>
<polygon fill="black" stroke="black" points="99.95,-176.86 89.35,-176.97 97.7,-183.49 99.95,-176.86"/>
</g>
<!-- Node6 -->
<g id="Node000006" class="node">
<title>Node6</title>
<g id="a_Node000006"><a xlink:href="group__tsl2561__interface__driver.html" target="_top" xlink:title="tsl2561 interface driver modules">
<polygon fill="white" stroke="#666666" points="263,-182 148,-182 148,-150 263,-150 263,-182"/>
<text xml:space="preserve" text-anchor="start" x="156" y="-168.5" font-family="Helvetica,sans-Serif" font-size="10.00">tsl2561 interface driver</text>
<text xml:space="preserve" text-anchor="middle" x="205.5" y="-156.5" font-family="Helvetica,sans-Serif" font-size="10.00"> function</text>
</a>
</g>
</g>
<!-- Node1&#45;&gt;Node6 -->
<g id="edge5" class="edge">
<title>Node1&#45;&gt;Node6</title>
<path fill="none" stroke="black" d="M123.66,-166C131.74,-166 139.94,-166 147.86,-166"/>
<polygon fill="black" stroke="black" points="123.86,-162.5 113.86,-166 123.86,-169.5 123.86,-162.5"/>
</g>
<!-- Node4 -->
<g id="Node000004" class="node">
<title>Node4</title>
<g id="a_Node000004"><a xlink:href="group__tsl2561__interrupt__driver.html" target="_top" xlink:title="tsl2561 interrupt driver modules">
<polygon fill="white" stroke="#666666" points="261.88,-132 149.12,-132 149.12,-100 261.88,-100 261.88,-132"/>
<text xml:space="preserve" text-anchor="start" x="157.12" y="-118.5" font-family="Helvetica,sans-Serif" font-size="10.00">tsl2561 interrupt driver</text>
<text xml:space="preserve" text-anchor="middle" x="205.5" y="-106.5" font-family="Helvetica,sans-Serif" font-size="10.00"> function</text>
</a>
</g>
</g>
<!-- Node1&#45;&gt;Node4 -->
<g id="edge3" class="edge">
<title>Node1&#45;&gt;Node4</title>
<path fill="none" stroke="black" d="M98.57,-151.91C116.41,-145.86 137.36,-138.76 155.91,-132.47"/>
<polygon fill="black" stroke="black" points="97.7,-148.51 89.35,-155.03 99.95,-155.14 97.7,-148.51"/>
</g>
<!-- Node2 -->
<g id="Node000002" class="node">
<title>Node2</title>
<g id="a_Node000002"><a xlink:href="group__tsl2561__link__driver.html" target="_top" xlink:title="tsl2561 link driver modules">
<polygon fill="white" stroke="#666666" points="251.75,-82 159.25,-82 159.25,-50 251.75,-50 251.75,-82"/>
<text xml:space="preserve" text-anchor="start" x="167.25" y="-68.5" font-family="Helvetica,sans-Serif" font-size="10.00">tsl2561 link driver</text>
<text xml:space="preserve" text-anchor="middle" x="205.5" y="-56.5" font-family="Helvetica,sans-Serif" font-size="10.00"> function</text>
</a>
</g>
</g>
<!-- Node1&#45;&gt;Node2 -->
<g id="edge1" class="edge">
<title>Node1&#45;&gt;Node2</title>
<path fill="none" stroke="black" d="M75.71,-147.97C93.34,-131.64 121,-107.66 148,-91 152.93,-87.96 158.29,-85.09 163.69,-82.45"/>
<polygon fill="black" stroke="black" points="73.45,-145.29 68.57,-154.69 78.25,-150.39 73.45,-145.29"/>
</g>
<!-- Node8 -->
<g id="Node000008" class="node">
<title>Node8</title>
<g id="a_Node000008"><a xlink:href="group__tsl2561__test__driver.html" target="_top" xlink:title="tsl2561 test driver modules">
<polygon fill="white" stroke="#666666" points="252.5,-32 158.5,-32 158.5,0 252.5,0 252.5,-32"/>
<text xml:space="preserve" text-anchor="start" x="166.5" y="-18.5" font-family="Helvetica,sans-Serif" font-size="10.00">tsl2561 test driver</text>
<text xml:space="preserve" text-anchor="middle" x="205.5" y="-6.5" font-family="Helvetica,sans-Serif" font-size="10.00"> function</text>
</a>
</g>
</g>
<!-- Node1&#45;&gt;Node8 -->
<g id="edge7" class="edge">
<title>Node1&#45;&gt;Node8</title>
<path fill="none" stroke="black" d="M67.39,-145.6C82.08,-118.51 111.28,-70.63 148,-41 151.92,-37.83 156.31,-34.99 160.86,-32.45"/>
<polygon fill="black" stroke="black" points="64.44,-143.7 62.87,-154.17 70.63,-146.96 64.44,-143.7"/>
</g>
</g>
</svg>
