<?xml version="1.0" encoding="UTF-8" standalone="no"?>
<!DOCTYPE svg PUBLIC "-//W3C//DTD SVG 1.1//EN"
 "http://www.w3.org/Graphics/SVG/1.1/DTD/svg11.dtd">
<!-- Generated by graphviz version 13.1.0 (20250701.0955)
 -->
<!-- Title: tsl2561_basic_init Pages: 1 -->
<svg width="279pt" height="658pt"
 viewBox="0.00 0.00 279.00 658.00" xmlns="http://www.w3.org/2000/svg" xmlns:xlink="http://www.w3.org/1999/xlink">
<g id="graph0" class="graph" transform="scale(1 1) rotate(0) translate(4 654)">
<title>tsl2561_basic_init</title>
<!-- Node1 -->
<g id="Node000001" class="node">
<title>Node1</title>
<g id="a_Node000001"><a xlink:title="basic example init">
<polygon fill="#999999" stroke="#666666" points="94,-332 0,-332 0,-312 94,-312 94,-332"/>
<text xml:space="preserve" text-anchor="middle" x="47" y="-318.5" font-family="Helvetica,sans-Serif" font-size="10.00">tsl2561_basic_init</text>
</a>
</g>
</g>
<!-- Node2 -->
<g id="Node000002" class="node">
<title>Node2</title>
<g id="a_Node000002"><a xlink:href="group__tsl2561__base__driver.html#ga28d9692abebc8d1c7c70ef8e3f4d0f5f" target="_top" xlink:title="close the chip">
<polygon fill="white" stroke="#666666" points="238.25,-650 162.25,-650 162.25,-630 238.25,-630 238.25,-650"/>
<text xml:space="preserve" text-anchor="middle" x="200.25" y="-636.5" font-family="Helvetica,sans-Serif" font-size="10.00">tsl2561_deinit</text>
</a>
</g>
</g>
<!-- Node1&#45;&gt;Node2 -->
<g id="edge1_Node000001_Node000002" class="edge">
<title>Node1&#45;&gt;Node2</title>
<g id="a_edge1_Node000001_Node000002"><a xlink:title=" ">
<path fill="none" stroke="#63b8ff" d="M47.47,-332.23C45.89,-374.44 45.7,-536.69 130,-621 135.82,-626.82 143.24,-630.9 151.05,-633.75"/>
<polygon fill="#63b8ff" stroke="#63b8ff" points="149.79,-637.03 160.38,-636.5 151.77,-630.32 149.79,-637.03"/>
</a>
</g>
</g>
<!-- Node3 -->
<g id="Node000003" class="node">
<title>Node3</title>
<g id="a_Node000003"><a xlink:href="group__tsl2561__base__driver.html#ga84a50a0c1118ead7fadb6f76ee991ea3" target="_top" xlink:title="initialize the chip">
<polygon fill="white" stroke="#666666" points="233,-612 167.5,-612 167.5,-592 233,-592 233,-612"/>
<text xml:space="preserve" text-anchor="middle" x="200.25" y="-598.5" font-family="Helvetica,sans-Serif" font-size="10.00">tsl2561_init</text>
</a>
</g>
</g>
<!-- Node1&#45;&gt;Node3 -->
<g id="edge2_Node000001_Node000003" class="edge">
<title>Node1&#45;&gt;Node3</title>
<g id="a_edge2_Node000001_Node000003"><a xlink:title=" ">
<path fill="none" stroke="#63b8ff" d="M47.95,-332.26C48.34,-371.13 55.11,-510.81 130,-583 137.1,-589.84 146.41,-594.27 155.91,-597.12"/>
<polygon fill="#63b8ff" stroke="#63b8ff" points="154.99,-600.5 165.53,-599.44 156.63,-593.7 154.99,-600.5"/>
</a>
</g>
</g>
<!-- Node4 -->
<g id="Node000004" class="node">
<title>Node4</title>
<g id="a_Node000004"><a xlink:href="group__tsl2561__interface__driver.html#ga3477a0a39215d6b4fd6ef14ed3ff63ff" target="_top" xlink:title="interface print format data">
<polygon fill="white" stroke="#666666" points="261.12,-574 139.38,-574 139.38,-542 261.12,-542 261.12,-574"/>
<text xml:space="preserve" text-anchor="start" x="147.38" y="-560.5" font-family="Helvetica,sans-Serif" font-size="10.00">tsl2561_interface_debug</text>
<text xml:space="preserve" text-anchor="middle" x="200.25" y="-548.5" font-family="Helvetica,sans-Serif" font-size="10.00">_print</text>
</a>
</g>
</g>
<!-- Node1&#45;&gt;Node4 -->
<g id="edge3_Node000001_Node000004" class="edge">
<title>Node1&#45;&gt;Node4</title>
<g id="a_edge3_Node000001_Node000004"><a xlink:title=" ">
<path fill="none" stroke="#63b8ff" d="M49.04,-332.43C52.95,-366.28 69.81,-474.25 130,-533 130.74,-533.72 131.5,-534.42 132.29,-535.11"/>
<polygon fill="#63b8ff" stroke="#63b8ff" points="129.97,-537.75 140.13,-540.78 134.08,-532.08 129.97,-537.75"/>
</a>
</g>
</g>
<!-- Node5 -->
<g id="Node000005" class="node">
<title>Node5</title>
<g id="a_Node000005"><a xlink:href="group__tsl2561__interface__driver.html#gaf1d2377fef3145b6c570f03465f2b208" target="_top" xlink:title="interface delay ms">
<polygon fill="white" stroke="#666666" points="269,-524 131.5,-524 131.5,-504 269,-504 269,-524"/>
<text xml:space="preserve" text-anchor="middle" x="200.25" y="-510.5" font-family="Helvetica,sans-Serif" font-size="10.00">tsl2561_interface_delay_ms</text>
</a>
</g>
</g>
<!-- Node1&#45;&gt;Node5 -->
<g id="edge4_Node000001_Node000005" class="edge">
<title>Node1&#45;&gt;Node5</title>
<g id="a_edge4_Node000001_Node000005"><a xlink:title=" ">
<path fill="none" stroke="#63b8ff" d="M49.81,-332.4C55.6,-362.47 76.52,-450.14 130,-495 131.28,-496.08 132.62,-497.09 134.01,-498.05"/>
<polygon fill="#63b8ff" stroke="#63b8ff" points="132,-500.93 142.42,-502.83 135.46,-494.85 132,-500.93"/>
</a>
</g>
</g>
<!-- Node6 -->
<g id="Node000006" class="node">
<title>Node6</title>
<g id="a_Node000006"><a xlink:href="group__tsl2561__interface__driver.html#ga22f6bdf1fbcd3bb8fc4cd178c0acc6e4" target="_top" xlink:title="interface iic bus deinit">
<polygon fill="white" stroke="#666666" points="252.88,-486 147.62,-486 147.62,-454 252.88,-454 252.88,-486"/>
<text xml:space="preserve" text-anchor="start" x="155.62" y="-472.5" font-family="Helvetica,sans-Serif" font-size="10.00">tsl2561_interface_iic</text>
<text xml:space="preserve" text-anchor="middle" x="200.25" y="-460.5" font-family="Helvetica,sans-Serif" font-size="10.00">_deinit</text>
</a>
</g>
</g>
<!-- Node1&#45;&gt;Node6 -->
<g id="edge5_Node000001_Node000006" class="edge">
<title>Node1&#45;&gt;Node6</title>
<g id="a_edge5_Node000001_Node000006"><a xlink:title=" ">
<path fill="none" stroke="#63b8ff" d="M52.11,-332.19C62,-355.5 89.39,-413.18 130,-445 132.29,-446.79 134.72,-448.47 137.24,-450.02"/>
<polygon fill="#63b8ff" stroke="#63b8ff" points="135.58,-453.1 146.05,-454.77 138.9,-446.94 135.58,-453.1"/>
</a>
</g>
</g>
<!-- Node7 -->
<g id="Node000007" class="node">
<title>Node7</title>
<g id="a_Node000007"><a xlink:href="group__tsl2561__interface__driver.html#ga1a281b120ea49954f762d7b2eaff1224" target="_top" xlink:title="interface iic bus init">
<polygon fill="white" stroke="#666666" points="261.88,-436 138.62,-436 138.62,-416 261.88,-416 261.88,-436"/>
<text xml:space="preserve" text-anchor="middle" x="200.25" y="-422.5" font-family="Helvetica,sans-Serif" font-size="10.00">tsl2561_interface_iic_init</text>
</a>
</g>
</g>
<!-- Node1&#45;&gt;Node7 -->
<g id="edge6_Node000001_Node000007" class="edge">
<title>Node1&#45;&gt;Node7</title>
<g id="a_edge6_Node000001_Node000007"><a xlink:title=" ">
<path fill="none" stroke="#63b8ff" d="M55.06,-332.36C67.86,-350.32 96.67,-387.22 130,-407 132.62,-408.56 135.38,-409.99 138.21,-411.31"/>
<polygon fill="#63b8ff" stroke="#63b8ff" points="136.77,-414.5 147.36,-415.03 139.41,-408.02 136.77,-414.5"/>
</a>
</g>
</g>
<!-- Node8 -->
<g id="Node000008" class="node">
<title>Node8</title>
<g id="a_Node000008"><a xlink:href="group__tsl2561__interface__driver.html#ga573ea1b7ae198af677bc3b27b6a3a2d7" target="_top" xlink:title="interface iic bus read">
<polygon fill="white" stroke="#666666" points="264.88,-398 135.62,-398 135.62,-378 264.88,-378 264.88,-398"/>
<text xml:space="preserve" text-anchor="middle" x="200.25" y="-384.5" font-family="Helvetica,sans-Serif" font-size="10.00">tsl2561_interface_iic_read</text>
</a>
</g>
</g>
<!-- Node1&#45;&gt;Node8 -->
<g id="edge7_Node000001_Node000008" class="edge">
<title>Node1&#45;&gt;Node8</title>
<g id="a_edge7_Node000001_Node000008"><a xlink:title=" ">
<path fill="none" stroke="#63b8ff" d="M63.42,-332.42C79.46,-342.88 105.61,-358.86 130,-369 134.53,-370.88 139.29,-372.63 144.12,-374.25"/>
<polygon fill="#63b8ff" stroke="#63b8ff" points="142.69,-377.47 153.28,-377.12 144.79,-370.79 142.69,-377.47"/>
</a>
</g>
</g>
<!-- Node9 -->
<g id="Node000009" class="node">
<title>Node9</title>
<g id="a_Node000009"><a xlink:href="group__tsl2561__interface__driver.html#ga98a581f813a5c86a5ab34784144c07ab" target="_top" xlink:title="interface iic bus write">
<polygon fill="white" stroke="#666666" points="252.88,-360 147.62,-360 147.62,-328 252.88,-328 252.88,-360"/>
<text xml:space="preserve" text-anchor="start" x="155.62" y="-346.5" font-family="Helvetica,sans-Serif" font-size="10.00">tsl2561_interface_iic</text>
<text xml:space="preserve" text-anchor="middle" x="200.25" y="-334.5" font-family="Helvetica,sans-Serif" font-size="10.00">_write</text>
</a>
</g>
</g>
<!-- Node1&#45;&gt;Node9 -->
<g id="edge8_Node000001_Node000009" class="edge">
<title>Node1&#45;&gt;Node9</title>
<g id="a_edge8_Node000001_Node000009"><a xlink:title=" ">
<path fill="none" stroke="#63b8ff" d="M94.2,-328.72C107.43,-330.64 122.09,-332.78 136.14,-334.82"/>
<polygon fill="#63b8ff" stroke="#63b8ff" points="135.36,-338.24 145.76,-336.22 136.36,-331.32 135.36,-338.24"/>
</a>
</g>
</g>
<!-- Node10 -->
<g id="Node000010" class="node">
<title>Node10</title>
<g id="a_Node000010"><a xlink:href="group__tsl2561__base__driver.html#ga6f162e88076d195caa4b2f0d8618ff57" target="_top" xlink:title="set the iic address pin">
<polygon fill="white" stroke="#666666" points="254.38,-310 146.12,-310 146.12,-290 254.38,-290 254.38,-310"/>
<text xml:space="preserve" text-anchor="middle" x="200.25" y="-296.5" font-family="Helvetica,sans-Serif" font-size="10.00">tsl2561_set_addr_pin</text>
</a>
</g>
</g>
<!-- Node1&#45;&gt;Node10 -->
<g id="edge9_Node000001_Node000010" class="edge">
<title>Node1&#45;&gt;Node10</title>
<g id="a_edge9_Node000001_Node000010"><a xlink:title=" ">
<path fill="none" stroke="#63b8ff" d="M94.2,-315.28C106.89,-313.43 120.9,-311.4 134.43,-309.43"/>
<polygon fill="#63b8ff" stroke="#63b8ff" points="134.75,-312.92 144.14,-308.02 133.74,-305.99 134.75,-312.92"/>
</a>
</g>
</g>
<!-- Node11 -->
<g id="Node000011" class="node">
<title>Node11</title>
<g id="a_Node000011"><a xlink:href="group__tsl2561__base__driver.html#gac665a54c9db148693b8cb7ef589b2101" target="_top" xlink:title="set the adc gain">
<polygon fill="white" stroke="#666666" points="245,-272 155.5,-272 155.5,-252 245,-252 245,-272"/>
<text xml:space="preserve" text-anchor="middle" x="200.25" y="-258.5" font-family="Helvetica,sans-Serif" font-size="10.00">tsl2561_set_gain</text>
</a>
</g>
</g>
<!-- Node1&#45;&gt;Node11 -->
<g id="edge10_Node000001_Node000011" class="edge">
<title>Node1&#45;&gt;Node11</title>
<g id="a_edge10_Node000001_Node000011"><a xlink:title=" ">
<path fill="none" stroke="#63b8ff" d="M66.1,-311.66C82.41,-302.65 107.26,-289.71 130,-281 134.91,-279.12 140.08,-277.34 145.29,-275.69"/>
<polygon fill="#63b8ff" stroke="#63b8ff" points="145.96,-279.14 154.53,-272.9 143.94,-272.44 145.96,-279.14"/>
</a>
</g>
</g>
<!-- Node12 -->
<g id="Node000012" class="node">
<title>Node12</title>
<g id="a_Node000012"><a xlink:href="group__tsl2561__base__driver.html#gad331206ce72a18afca3ccd60b4f43914" target="_top" xlink:title="set the integration time">
<polygon fill="white" stroke="#666666" points="270.5,-234 130,-234 130,-214 270.5,-214 270.5,-234"/>
<text xml:space="preserve" text-anchor="middle" x="200.25" y="-220.5" font-family="Helvetica,sans-Serif" font-size="10.00">tsl2561_set_integration_time</text>
</a>
</g>
</g>
<!-- Node1&#45;&gt;Node12 -->
<g id="edge11_Node000001_Node000012" class="edge">
<title>Node1&#45;&gt;Node12</title>
<g id="a_edge11_Node000001_Node000012"><a xlink:title=" ">
<path fill="none" stroke="#63b8ff" d="M55.87,-311.59C69.24,-294.65 98.04,-261.18 130,-243 132.79,-241.41 135.73,-239.95 138.74,-238.6"/>
<polygon fill="#63b8ff" stroke="#63b8ff" points="139.81,-241.95 147.83,-235.03 137.24,-235.43 139.81,-241.95"/>
</a>
</g>
</g>
<!-- Node13 -->
<g id="Node000013" class="node">
<title>Node13</title>
<g id="a_Node000013"><a xlink:href="group__tsl2561__interrupt__driver.html#gad5274afdb9828fa959698c637a4d7124" target="_top" xlink:title="enable or disable the chip interrupt">
<polygon fill="white" stroke="#666666" points="253.62,-196 146.88,-196 146.88,-176 253.62,-176 253.62,-196"/>
<text xml:space="preserve" text-anchor="middle" x="200.25" y="-182.5" font-family="Helvetica,sans-Serif" font-size="10.00">tsl2561_set_interrupt</text>
</a>
</g>
</g>
<!-- Node1&#45;&gt;Node13 -->
<g id="edge12_Node000001_Node000013" class="edge">
<title>Node1&#45;&gt;Node13</title>
<g id="a_edge12_Node000001_Node000013"><a xlink:title=" ">
<path fill="none" stroke="#63b8ff" d="M52.23,-311.75C62.21,-288.91 89.44,-233.57 130,-205 131.95,-203.63 134,-202.35 136.11,-201.17"/>
<polygon fill="#63b8ff" stroke="#63b8ff" points="137.53,-204.37 145.07,-196.93 134.53,-198.04 137.53,-204.37"/>
</a>
</g>
</g>
<!-- Node14 -->
<g id="Node000014" class="node">
<title>Node14</title>
<g id="a_Node000014"><a xlink:href="group__tsl2561__interrupt__driver.html#ga5c07d509898fd673f9ba004f06dfa161" target="_top" xlink:title="set the interrupt high threshold">
<polygon fill="white" stroke="#666666" points="253.62,-158 146.88,-158 146.88,-126 253.62,-126 253.62,-158"/>
<text xml:space="preserve" text-anchor="start" x="154.88" y="-144.5" font-family="Helvetica,sans-Serif" font-size="10.00">tsl2561_set_interrupt</text>
<text xml:space="preserve" text-anchor="middle" x="200.25" y="-132.5" font-family="Helvetica,sans-Serif" font-size="10.00">_high_threshold</text>
</a>
</g>
</g>
<!-- Node1&#45;&gt;Node14 -->
<g id="edge13_Node000001_Node000014" class="edge">
<title>Node1&#45;&gt;Node14</title>
<g id="a_edge13_Node000001_Node000014"><a xlink:title=" ">
<path fill="none" stroke="#63b8ff" d="M50.63,-311.68C58.18,-284.16 82.43,-208.33 130,-167 132.15,-165.13 134.46,-163.4 136.87,-161.79"/>
<polygon fill="#63b8ff" stroke="#63b8ff" points="138.37,-164.96 145.3,-156.95 134.89,-158.89 138.37,-164.96"/>
</a>
</g>
</g>
<!-- Node15 -->
<g id="Node000015" class="node">
<title>Node15</title>
<g id="a_Node000015"><a xlink:href="group__tsl2561__interrupt__driver.html#ga4a38a54eb4140c093349289ff7efe488" target="_top" xlink:title="set the interrupt low threshold">
<polygon fill="white" stroke="#666666" points="253.62,-108 146.88,-108 146.88,-76 253.62,-76 253.62,-108"/>
<text xml:space="preserve" text-anchor="start" x="154.88" y="-94.5" font-family="Helvetica,sans-Serif" font-size="10.00">tsl2561_set_interrupt</text>
<text xml:space="preserve" text-anchor="middle" x="200.25" y="-82.5" font-family="Helvetica,sans-Serif" font-size="10.00">_low_threshold</text>
</a>
</g>
</g>
<!-- Node1&#45;&gt;Node15 -->
<g id="edge14_Node000001_Node000015" class="edge">
<title>Node1&#45;&gt;Node15</title>
<g id="a_edge14_Node000001_Node000015"><a xlink:title=" ">
<path fill="none" stroke="#63b8ff" d="M49.13,-311.86C53.35,-278.96 71.02,-174.01 130,-117 132.09,-114.98 134.36,-113.12 136.75,-111.41"/>
<polygon fill="#63b8ff" stroke="#63b8ff" points="138.46,-114.47 145.22,-106.31 134.85,-108.47 138.46,-114.47"/>
</a>
</g>
</g>
<!-- Node16 -->
<g id="Node000016" class="node">
<title>Node16</title>
<g id="a_Node000016"><a xlink:href="group__tsl2561__interrupt__driver.html#ga30ba6476f18e90d6130cba741070fa67" target="_top" xlink:title="set the interrupt mode">
<polygon fill="white" stroke="#666666" points="268.25,-58 132.25,-58 132.25,-38 268.25,-38 268.25,-58"/>
<text xml:space="preserve" text-anchor="middle" x="200.25" y="-44.5" font-family="Helvetica,sans-Serif" font-size="10.00">tsl2561_set_interrupt_mode</text>
</a>
</g>
</g>
<!-- Node1&#45;&gt;Node16 -->
<g id="edge15_Node000001_Node000016" class="edge">
<title>Node1&#45;&gt;Node16</title>
<g id="a_edge15_Node000001_Node000016"><a xlink:title=" ">
<path fill="none" stroke="#63b8ff" d="M48.04,-311.71C48.76,-273.35 56.61,-137.28 130,-67 130.9,-66.14 131.84,-65.31 132.8,-64.53"/>
<polygon fill="#63b8ff" stroke="#63b8ff" points="134.5,-67.6 140.97,-59.21 130.68,-61.73 134.5,-67.6"/>
</a>
</g>
</g>
<!-- Node17 -->
<g id="Node000017" class="node">
<title>Node17</title>
<g id="a_Node000017"><a xlink:href="group__tsl2561__base__driver.html#gae080c29275c44f5496977b8553e94457" target="_top" xlink:title="wake up the chip">
<polygon fill="white" stroke="#666666" points="246.12,-20 154.38,-20 154.38,0 246.12,0 246.12,-20"/>
<text xml:space="preserve" text-anchor="middle" x="200.25" y="-6.5" font-family="Helvetica,sans-Serif" font-size="10.00">tsl2561_wake_up</text>
</a>
</g>
</g>
<!-- Node1&#45;&gt;Node17 -->
<g id="edge16_Node000001_Node000017" class="edge">
<title>Node1&#45;&gt;Node17</title>
<g id="a_edge16_Node000001_Node000017"><a xlink:title=" ">
<path fill="none" stroke="#63b8ff" d="M47.54,-311.68C46.26,-269.87 47.24,-111.34 130,-29 133.88,-25.14 138.47,-22.04 143.41,-19.56"/>
<polygon fill="#63b8ff" stroke="#63b8ff" points="144.58,-22.86 152.53,-15.86 141.95,-16.38 144.58,-22.86"/>
</a>
</g>
</g>
</g>
</svg>
